<svg xmlns="http://www.w3.org/2000/svg" viewBox="0 0 373 326.37"><title>education_1</title><g id="Layer_2" data-name="Layer 2"><g id="Layer_1-2" data-name="Layer 1"><path d="M208.26,326.37c-12.65-5.46-11.72-14.35-9.37-26.73,1.14-6,6.21-7.68,11.93-7.66,12.94.06,25.89-.18,38.83.08,5.36.1,7.5-1.71,7.06-7.18-.39-4.89-.13-9.83-.06-14.75.12-9.15,4.09-13.28,13.17-13.37,12.16-.13,24.33,0,36.5-.05,2.52,0,5-.23,8.36-.39,0-6.94-.14-13.35,0-19.76.28-10.91,3.78-14.34,14.59-14.43,8.8-.08,17.63.45,26.39-.16,8.2-.56,14,2,17.31,9.6v94.8Z"/><path d="M0,180.28C5.47,169.5,10.77,158.63,16.45,148c5.07-9.51,11.59-11.55,21.23-6.67q22.11,11.19,44,22.88c8.43,4.52,10.66,11.75,6.43,20.24q-6.74,13.51-14,26.74c-4.35,7.88-11.65,10.27-19.73,6.21-15.22-7.65-30.48-15.27-45.22-23.78-4-2.29-6.12-7.74-9.11-11.74Z"/><path d="M208.26,0c1.81.81,3.6,1.7,5.44,2.42C227,7.63,234.11,21.05,231.24,35.7c-2.47,12.61-14.43,21.83-28.2,21.76-14.54-.08-25.7-9.79-28.27-24.59-2.15-12.36,6.14-26,18.55-30.64,1.89-.7,3.74-1.49,5.61-2.23Z"/><path d="M140.15,86.79c-10.29,0-19.08-.36-27.81.24-2.28.16-5.27,2.86-6.38,5.14-5.87,12.08-11.18,24.42-16.81,36.61-4.42,9.58-11.8,12.93-19.8,9.22-7.77-3.61-10-11.53-5.74-21q9.24-20.48,18.71-40.84C87.48,65,96.1,59,108.56,59c17.61,0,35.24-.49,52.82.23,7,.3,14.16,2.72,20.78,5.33,2.12.84,3.72,5.36,3.9,8.3.51,8.39.18,16.84,1.26,26q6.42-14.11,12.82-28.22c12.42,5.76,15.09,12.23,9.9,25.15-9.51,23.67-19.09,47.31-28.89,71.58,10.42,5.49,20.28,11.07,30.47,16,14.18,6.82,20.8,17.63,20.26,33.44-.49,14.48,0,29-.15,43.5-.1,11.49-7,19-17,18.86-9.42-.15-16.69-7.91-16.89-18.64-.24-12.95-.35-25.91.07-38.84.18-5.49-1.79-8.24-6.58-10.65-18.93-9.52-37.66-19.43-56.4-29.31-17.08-9-22.78-24.49-15.7-42.45C125.92,122.31,132.75,105.35,140.15,86.79Z"/><path d="M127.85,192.38c11,5.74,20.85,10.68,30.44,16.12,1.72,1,3.17,4,3.22,6.1.26,11.37.8,22.81-.32,34.08a38.9,38.9,0,0,1-6.83,17.6c-9.48,13.53-19.84,26.44-30,39.47-7,8.94-17.14,10.56-25,4.27-7.45-5.92-8.41-16.29-2-24.88,8.66-11.58,17.81-22.8,26.17-34.59A24.26,24.26,0,0,0,127.65,238C128.15,223.27,127.85,208.54,127.85,192.38Z"/><path d="M223.64,96.87c7.46,11.1,14.5,21.22,21.11,31.62,2.63,4.14,5.48,6.06,10.61,5.82,9.8-.45,19.64-.23,29.46-.1,10.53.14,16.56,5.5,16.48,14.36-.07,8.51-6,13.91-16,14.08-11.89.2-23.79.3-35.67,0-10.7-.3-18.41-5.6-25.53-13.83-11.89-13.72-14.81-27.25-4.52-42.85C221.17,103.5,222,100.54,223.64,96.87Z"/></g></g></svg>