<svg xmlns="http://www.w3.org/2000/svg" viewBox="0 0 220.27 221.16"><title>extra</title><g id="Layer_2" data-name="Layer 2"><g id="Layer_1-2" data-name="Layer 1"><path d="M174.21,0c.67,2.11,2,4.25,1.92,6.34-.88,24.31-4.4,48.27-15,70.31-6.37,13.18-14.89,25.38-22.93,37.7-6.63,10.18-13.32,20.18-14.45,33H97.1C94.61,126.55,80,112,69.44,95.38,56.49,75.06,49.64,52.81,46.37,29.25c-1-7-1.52-14.11-1.79-21.19-.1-2.66,1.16-5.37,1.8-8.06Z"/><path d="M220.27,46.06c-9.5,25.76-37.54,54-61.34,61.8,4-6.86,8-13.91,12.31-20.8,1-1.71,2.95-2.88,4.41-4.35,8.48-8.51,17-17,25.36-25.6a19.19,19.19,0,0,0,3.45-5.92c6.56-15.81,1.38-20.18-10.93-22-1.67-.24-3.34-.5-5.54-.84.42-4.11.82-8,1.21-11.86,15.15-1.73,26.06,5.09,31.07,19.18Z"/><path d="M.31,35.7c5.38-14.33,12.83-19.17,31-19.8l1.39,12.43c-3.58.64-6.77,1.07-9.9,1.8C14.94,32,11.85,36.14,13.87,44c1.3,5,3.47,10.39,6.79,14.31C27.17,66,34.85,72.67,41.84,80A109.36,109.36,0,0,1,51.91,92.05a102.69,102.69,0,0,1,8.68,15C34.51,92.75,10.49,76.36.31,46.06Z"/><path d="M176,161.32c0,11.77.1,23.22-.17,34.66,0,1.07-2.31,2.71-3.75,3-2.59.49-5.34.15-8,.15-37.76,0-75.52-.08-113.29.09-4.77,0-6.38-1.4-6.26-6.19.29-10.47.09-21,.09-31.69Z"/><path d="M20.66,203,.7,185.1l1.05-1.56h33.3c0,6.53.15,13-.06,19.46-.13,4,1.49,5.45,5.43,5.35,7.47-.2,14.94-.06,23.26-.06,0,3.43.29,6.64-.15,9.75-.17,1.16-2,3-3.14,3-19.49.18-39,.13-60.39.13Z"/><path d="M156.92,208.29c7.63,0,14.53-.38,21.38.12,6,.43,7.76-1.91,7.33-7.6s-.1-11.41-.1-17.45h34.12c-4.63,4.73-8.56,8.78-12.52,12.81-5.75,5.86-5.74,5.84-.17,11.53q5.63,5.76,11.21,11.57a7.12,7.12,0,0,1,.76,1.52c-1.81.13-3.41.35-5,.35q-24.47,0-48.93,0c-8.15,0-8.15,0-8.08-8.09C156.93,211.74,156.92,210.41,156.92,208.29Z"/></g></g></svg>