<svg xmlns="http://www.w3.org/2000/svg" viewBox="0 0 225.28 261.36"><title>intern</title><g id="Layer_2" data-name="Layer 2"><g id="Layer_1-2" data-name="Layer 1"><path d="M113.09,140c32.16,0,64.31-.05,96.46,0,14.65.05,17.71,4.13,14.67,18.3-6.28,29.32-12.71,58.6-18.49,88-2,10.3-5.89,15.18-17.54,15-50.36-.6-100.74-.5-151.11,0-11.25.1-15.32-3.95-17.33-15-5.16-28.42-11.83-56.58-18-84.81C-2.37,143-.08,140,18.78,140Q65.94,139.92,113.09,140Zm7,62.54c-3.78-3.19-6.3-6.77-8-6.42a9.94,9.94,0,0,0-6.46,6c-.44,1.55,3.24,6,5.13,6C113.24,208.17,115.84,205.22,120.05,202.5Z"/><path d="M154.32,49.12c-.94,15.71-4.83,32.9-17.24,47-15.21,17.28-37,17.45-52,0C70.57,79.18,65.65,58.83,68.63,37.18a42.59,42.59,0,0,1,46.12-37C137.83,2.24,154.58,21.91,154.32,49.12Zm-43.46,55.3c11,.07,21.27-4.6,27.59-15.52,5.25-9.08,8.25-19.51,11.9-29.46,1.24-3.4-10.74-29.31-14-30.83a6.79,6.79,0,0,0-5-.28c-14,6.21-27.86,4.73-41.73,0-7.89-2.71-11.58.57-12.38,8.16-.52,4.95,1.3,12-1.34,14.52-7.43,7.17-3.18,14-1.16,20.54C81.22,92.34,94.88,104.33,110.86,104.42Z"/><path d="M190.58,133.15H36.76c4-11.54,23-25.52,34.21-24.88a10.93,10.93,0,0,1,6.33,3c21,20.28,48.65,20.15,71.21-.25,1.84-1.66,5.27-3.06,7.49-2.54C169.91,111.75,181.19,119,190.58,133.15Z"/></g></g></svg>