<svg xmlns="http://www.w3.org/2000/svg" viewBox="0 0 300.21 261"><title>internships</title><g id="Layer_2" data-name="Layer 2"><g id="Layer_1-2" data-name="Layer 1"><path d="M0,114.26V74.13a5.05,5.05,0,0,0,.27-.86A22.66,22.66,0,0,1,6.7,60.5c5.7-5.76,12.73-8.25,20.74-8.25H94.66c0-6.6,0-12.92,0-19.25a27.38,27.38,0,0,1,6.14-17.56c6.19-7.78,14.51-12,24-14.18,2.48-.55,5-.85,7.52-1.26h34.31c.55.1,1.09.24,1.64.29,9.22,1,17.74,3.86,25.08,9.63,8,6.27,12.58,14.29,12.23,24.77-.17,5.26,0,10.52,0,15.78v1.78H275c11.81,0,21,6.42,24.13,16.84.47,1.55.75,3.16,1.12,4.74V113c-.5.24-1,.45-1.5.72-7.06,3.78-14,7.7-21.16,11.33-27.19,13.85-55.43,24.76-85.55,30.37-3.08.58-6.19,1-9.43,1.6,0-3.72.06-7.18,0-10.64a12.76,12.76,0,0,0-12.38-12.55q-20.05-.19-40.11,0A12.36,12.36,0,0,0,118,144.44c-.49,3.51-.24,7.12-.32,10.69,0,.59,0,1.18,0,2.05-6.29-1.2-12.38-2.21-18.39-3.54-23-5.09-45-13-66.43-22.64A366.61,366.61,0,0,1,0,114.26ZM189.34,52.1c0-.46.07-.76.07-1.06,0-6.12,0-12.25,0-18.37a14,14,0,0,0-.25-2.74c-1-4.72-4-7.81-8.11-10a34.55,34.55,0,0,0-15.95-3.71c-9.49-.13-19-.06-28.48-.08a46.82,46.82,0,0,0-13,1.59c-9,2.55-12.81,7.59-12.81,16.88V52.1Z"/><path d="M275.4,261H23.89c-1.64-.76-3.49-1.25-4.91-2.32-4.37-3.3-5.92-8-5.92-13.3q0-52,0-104V139.6a12.18,12.18,0,0,1,1.2.3c7,2.72,14.14,5.26,21.07,8.22,14.12,6,28.28,11.91,43,16.41a242.31,242.31,0,0,0,38,8.54c1,.14,1.41.45,1.35,1.51-.08,1.63,0,3.26,0,4.9a12.81,12.81,0,0,0,12.65,12.93q19.83.22,39.67,0c7.16-.08,12.5-5.77,12.61-12.95,0-2,0-4,0-6.11,37.17-5.11,71.19-19.22,104.45-35.91,0,.59.1,1,.1,1.38q0,53.54,0,107.07A15.65,15.65,0,0,1,283.41,256,15.45,15.45,0,0,1,275.4,261Z"/><path d="M133.87,179.37V146.91h32.38v32.46Z"/></g></g></svg>