<svg xmlns="http://www.w3.org/2000/svg" viewBox="0 0 178.77 198.11"><title>publications</title><g id="Layer_2" data-name="Layer 2"><g id="Layer_1-2" data-name="Layer 1"><path d="M88.18,57.43c7,15,17.59,26.28,33.9,33.25-10.66,8.83-20.59,17.08-30.56,25.29-18.35,15.1-36.65,30.27-55.16,45.17-2.76,2.22-6.61,4.61-9.82,4.43-7.85-.44-9.84,5.28-12.24,10.25-1.93,4,.81,6.47,4.75,7.58,8.29,2.33,15.92.23,22.55-4.47,7.78-5.5,15-11.76,22.37-17.86,25.1-20.87,49.81-22.75,76.72-4.14,10.4,7.19,19.13,16.85,28.35,25.66,3.74,3.56,5.27,8.31.4,12-4.56,3.5-8,.61-11.14-3.2-12.36-15-26.55-27.32-46.16-32.07-12.93-3.14-24,.54-34,8.33C71.38,173,65,178.85,58.32,184.26,47,193.43,34.73,200,19.3,197.63,1.13,194.84-5,180.07,4.37,164.12,27.15,125.54,58.79,93.94,86.08,58.93A11.49,11.49,0,0,1,88.18,57.43Z"/><path d="M129.39,0c31.35,0,56.11,31.63,47.74,59.41-2.66,8.8-3.48,9.3-12.25,6.62q-40.12-12.24-52.3-52.42c-2.54-8.37-2-9.25,6.31-11.86A44,44,0,0,1,125,.38C126.85.09,128.72.05,129.39,0Z"/><path d="M101.27,15.59C111,47.42,131.58,67.74,162.9,77.41c-14.37,10.64-37,7.32-52.4-7.44C94.38,54.5,90.32,32,101.27,15.59Z"/></g></g></svg>