<svg xmlns="http://www.w3.org/2000/svg" viewBox="0 0 325.11 325"><title>skills</title><g id="Layer_2" data-name="Layer 2"><g id="Layer_1-2" data-name="Layer 1"><path d="M0,53.39c.55-3.26,1-6.53,1.67-9.77A32.88,32.88,0,0,1,3.3,38.25c1.13-2.87,3.56-3.62,5.92-1.69,2.65,2.15,5.17,4.49,7.63,6.87C24,50.35,31,57.37,38.22,64.26c4.34,4.17,6.14,4.18,10.47,0,5.33-5.14,10.5-10.45,15.72-15.7A18,18,0,0,0,66,46.66c1.65-2.22,1.74-4.26-.07-6.33-2.81-3.19-5.75-6.27-8.7-9.33C51.15,24.73,45,18.51,38.94,12.24A27.56,27.56,0,0,1,36.4,9.19C34.82,7,35.19,4.81,37.61,3.69a31.73,31.73,0,0,1,7-2.31c37.54-7.55,63.64,19.7,67.61,46.31a55.64,55.64,0,0,1-3.43,30.09c-.9,2.17-.83,3.59.92,5.33q23.61,23.42,47.05,47c.43.43.9.81,1.71,1.54l97.78-97.43,34.53,34.52-97.49,97.81c2.84,3,5.38,5.71,8,8.37q20.64,20.75,41.28,41.49a2,2,0,0,0,2.56.5c20.06-7.89,39.25-6.56,56.81,6.42,11.31,8.36,19.05,19.46,21.81,33.53a56.34,56.34,0,0,1-1.45,28,15.12,15.12,0,0,1-1.07,2.6c-1.26,2.28-3.37,2.86-5.38,1.22-2.73-2.23-5.36-4.62-7.89-7.07-6.59-6.39-13.09-12.86-19.65-19.27a44,44,0,0,0-4.14-3.57,4.36,4.36,0,0,0-5.53,0A21,21,0,0,0,276,261q-7.59,7.53-15.13,15.12a22.45,22.45,0,0,0-2.13,2.53c-1.5,2-1.56,4,.06,5.92,2.1,2.49,4.32,4.87,6.59,7.22q10.92,11.33,21.93,22.6c.26.28.51.59.74.89,2.27,3,1.74,5.15-1.69,6.65a35.84,35.84,0,0,1-12.08,2.62c-9.56.63-19,.36-27.92-3.81-16.91-7.92-28-20.81-32.91-38.84-1.53-5.59-1.1-11.4-1.07-17.15a47.12,47.12,0,0,1,4.41-19.55,1.73,1.73,0,0,0-.36-2.31q-23.64-23.37-47.21-46.8c-.82-.82-1.71-1.57-2.67-2.45-1.69,1.62-3.34,3.16-4.95,4.75q-48.39,48.09-96.79,96.17a9.94,9.94,0,0,1-2.65,1.91Q32.36,310.56,2.48,324.62A2.48,2.48,0,0,0,2,325H0v-2a1.74,1.74,0,0,0,.3-.37c7.62-16.29,15.34-32.54,22.81-48.9,3.58-7.85,8.15-14.88,14.64-20.61.53-.47,1-1,1.5-1.54l85.63-86.46c2.17-2.19,4.31-4.43,6.52-6.71-.71-.8-1.29-1.53-2-2.18Q106,132.82,82.51,109.4C81.12,108,80,108,78.29,108.68A53.79,53.79,0,0,1,46,112C23.46,107.07,8.61,93.4,1.91,71.23A95.23,95.23,0,0,1,0,61.35Z"/><path d="M300.18,59.47,265.59,24.89c0,.11,0,0,0-.08q11-10.77,22.05-21.54A10.57,10.57,0,0,1,298.18.38a10.19,10.19,0,0,1,4,1.9A159.62,159.62,0,0,1,322.84,23a10.16,10.16,0,0,1-.15,13c-5.22,5.79-10.68,11.34-16.07,17C304.48,55.22,302.26,57.38,300.18,59.47Z"/></g></g></svg>