<svg xmlns="http://www.w3.org/2000/svg" viewBox="0 0 219 219"><defs><style>.cls-1{fill:#1da1f2;}.cls-2{fill:#fff;}</style></defs><title>icon-twitter</title><g id="Layer_2" data-name="Layer 2"><g id="Layer_1-2" data-name="Layer 1"><rect class="cls-1" width="219" height="219" rx="8.85"/><path class="cls-2" d="M17.85,167.43c20.5,2,39-3.14,55.42-15.62-.16-.28-.36-.21-.52-.22-1-.08-2-.12-3-.22a34.21,34.21,0,0,1-6.56-1.32,37.79,37.79,0,0,1-24.82-23.83c-.07-.2-.13-.4-.21-.69a37,37,0,0,0,16.8-.69c-12.35-3-21.39-10.06-26.77-21.61A35.87,35.87,0,0,1,24.9,87.44a37.74,37.74,0,0,0,16.92,4.65c-.1-.3-.31-.37-.47-.49A37.64,37.64,0,0,1,25.79,67.42,37.79,37.79,0,0,1,30,42.14a3.27,3.27,0,0,1,.21-.33c.13.14.25.25.35.38A108.22,108.22,0,0,0,42.31,54.32a107.64,107.64,0,0,0,25,16.58,107.15,107.15,0,0,0,20.7,7.36c2.7.65,5.42,1.23,8.17,1.63,2,.3,4,.59,6,.82,1.5.17,3,.24,4.52.35.23,0,.46.06.69.07s.37,0,.61,0c-.11-.6-.22-1.13-.32-1.66a35.34,35.34,0,0,1-.58-9A37.58,37.58,0,0,1,142.42,34.9a34.69,34.69,0,0,1,5.49,0,37.53,37.53,0,0,1,19.66,7.53,34.48,34.48,0,0,1,4.37,3.91.85.85,0,0,0,.89.27,76.17,76.17,0,0,0,22.47-8.49,6.1,6.1,0,0,1,.81-.4,36.25,36.25,0,0,1-6.3,11.74,40,40,0,0,1-10,8.84,23,23,0,0,0,3.62-.45c1.21-.22,2.42-.43,3.63-.7s2.39-.56,3.58-.89,2.33-.67,3.48-1,2.34-.78,3.49-1.22,2.29-.91,3.5-1.4c-.09.15-.14.26-.21.37A76.21,76.21,0,0,1,183,71.6a1,1,0,0,0-.49,1,76.81,76.81,0,0,1,0,8c-.11,2-.24,4-.41,6-.21,2.66-.6,5.29-1,7.91A108.1,108.1,0,0,1,177,110.73a110.86,110.86,0,0,1-21.87,38.32,101.12,101.12,0,0,1-35.21,26,99.94,99.94,0,0,1-19.58,6.42c-2.59.56-5.21,1-7.83,1.45-1.87.31-3.77.47-5.66.68a116.06,116.06,0,0,1-15.15.5c-1.57,0-3.13-.16-4.69-.28-1.32-.09-2.64-.2-3.95-.35-1.57-.19-3.15-.38-4.7-.65q-3.41-.6-6.78-1.32a99.16,99.16,0,0,1-12.86-3.77,106.74,106.74,0,0,1-20.5-10.05l-.34-.24S17.85,167.45,17.85,167.43Z"/></g></g></svg>