<svg xmlns="http://www.w3.org/2000/svg" viewBox="0 0 219 219.27"><defs><style>.cls-1{fill:#3c5a99;}.cls-2{fill:#fff;}</style></defs><title>icon-facebook</title><g id="Layer_2" data-name="Layer 2"><g id="Layer_1-2" data-name="Layer 1"><rect class="cls-1" width="219" height="219" rx="8.85"/><path class="cls-2" d="M122.33,137.6c-.49,0-.9-.07-1.31-.07-8.31,0-16.63,0-25,0-.94,0-1.26-.21-1.25-1.2q0-14.82,0-29.64c0-1,.3-1.23,1.25-1.23,8.29,0,16.57,0,24.86,0h1.4v-1.27c0-7.62,0-15.24,0-22.85A47.72,47.72,0,0,1,126.63,61c5.1-10.73,13.71-17,25.13-19.76A40.92,40.92,0,0,1,162.27,40c7.45.23,14.9.54,22.34.84.92,0,1.84.22,2.76.29.54,0,.72.29.67.8a5.42,5.42,0,0,0,0,.57V69.82c-.53,0-1,.07-1.41.08-5.89,0-11.79,0-17.69.1a22.09,22.09,0,0,0-4.89.74c-4.66,1.18-7.34,4.26-8.14,9a30.23,30.23,0,0,0-.43,5c0,6.56,0,13.13,0,19.7,0,.93.33,1.09,1.16,1.08q14.47,0,29,0h1.38c-.18,1.54-.33,3-.51,4.35-1.14,8.81-2.29,17.61-3.39,26.43-.13,1-.47,1.28-1.48,1.28-8.26-.05-16.51,0-24.76,0-.41,0-.82,0-1.35.07v79.77c0,.32,0,.64,0,1,.06.7-.2.95-.93.94-2.45,0-4.91,0-7.36,0H123.84c-1.56,0-1.51.27-1.51-1.47V137.6Z"/></g></g></svg>