<svg xmlns="http://www.w3.org/2000/svg" viewBox="0 0 219 219"><defs><style>.cls-1{fill:#1b75bb;}.cls-2{fill:#fff;}</style></defs><title>icon-linkedin</title><g id="Layer_2" data-name="Layer 2"><g id="Layer_1-2" data-name="Layer 1"><rect class="cls-1" width="219" height="219" rx="8.85"/><path class="cls-2" d="M85.32,194a1.57,1.57,0,0,1-.74-1.43c0-.59,0-1.17,0-1.76V179.09q0-29.46,0-58.92,0-18.47,0-36.94a7.45,7.45,0,0,1,0-1.16A1.14,1.14,0,0,1,85.75,81a10,10,0,0,1,1.1,0H112c1.62,0,3.23,0,4.84,0a5.93,5.93,0,0,1,.73,0,1,1,0,0,1,1.09,1.06,8.57,8.57,0,0,1,0,1.24c0,4,0,7.92,0,11.87,0,.16,0,.33.08.66.26-.35.43-.57.59-.8a37.6,37.6,0,0,1,26.63-16.39,54.28,54.28,0,0,1,9.95-.42,50.66,50.66,0,0,1,15.39,3.06A30.39,30.39,0,0,1,187.79,95.8a50,50,0,0,1,4.52,12.66,55.69,55.69,0,0,1,1.36,10.37q.22,6,.46,12c0,.24.06.48.09.72V194H159.48a1.42,1.42,0,0,1-.73-1.34c0-.32,0-.64,0-.95,0-5.67,0-11.34,0-17q0-21,0-42.06a45.07,45.07,0,0,0-.43-6.35,27.44,27.44,0,0,0-2.75-8.92,13.64,13.64,0,0,0-9.69-7.36,26,26,0,0,0-10.55,0A16.24,16.24,0,0,0,123,120a32.74,32.74,0,0,0-2.29,8.75,68.74,68.74,0,0,0-.48,9.07V191.3c0,.54,0,1.08-.05,1.61a1.36,1.36,0,0,1-.52,1.09Z"/><path class="cls-2" d="M28.3,194a1.46,1.46,0,0,1-.69-1.3c0-.31,0-.63,0-.95,0-3.78,0-7.57,0-11.36V83.75c0-.61,0-1.22.06-1.83s.27-.85.92-.92a8.55,8.55,0,0,1,.88,0h31.8a5.35,5.35,0,0,1,.8,0,1.15,1.15,0,0,1,1.15,1.11,10.36,10.36,0,0,1,.06,1.25q0,4.86,0,9.74,0,16.64-.06,33.26,0,28.14,0,56.27c0,2.94,0,5.87,0,8.8,0,.39,0,.78,0,1.17a1.7,1.7,0,0,1-.66,1.4Z"/><path class="cls-2" d="M47.35,25c.43.08.86.17,1.3.24A20.54,20.54,0,1,1,25,48.41a8.32,8.32,0,0,0-.26-1V43.61a8.32,8.32,0,0,0,.26-1A20.15,20.15,0,0,1,41.31,25.38c.74-.14,1.49-.25,2.23-.38Z"/></g></g></svg>